<?xml version="1.0" encoding="utf-8"?>
<!-- Generator: Adobe Illustrator 21.1.0, SVG Export Plug-In . SVG Version: 6.00 Build 0)  -->
<svg version="1.1" id="Layer_1" xmlns="http://www.w3.org/2000/svg" xmlns:xlink="http://www.w3.org/1999/xlink" x="0px" y="0px"
	 viewBox="0 0 283 120" style="enable-background:new 0 0 283 120;" xml:space="preserve">
<style type="text/css">
	.st0{fill:#888888;}
</style>
<g>
	<path class="st0" d="M82.2,105.7c-0.3-2.4-2.4-4.3-4.8-4.3h-3.5c-2,0-3.8-1.7-3.8-3.8v-11c6.7-0.4,12.1-5.9,12.1-12.8
		c0-6.7-11.7-36.3-12.2-37.5c-0.3-0.5-1.1-0.5-1.2,0c-0.4,0.8-6.1,15.1-9.6,26.1c-3.1-9.4-7.5-20.7-7.7-20.9c-0.3-0.5-1.1-0.5-1.2,0
		c-0.4,1.1-10.6,26.6-10.6,32.6c0,5.9,4.7,10.8,10.5,11.2v12.4c0,2-1.7,3.8-3.8,3.8H28.5c-2.7,0-5,2.3-5,5v2.6h-1.9
		c-2.2,0-3.8-1.7-3.8-3.8v-1.9l13.7-3.9c0.1,0,0.4-0.3,0.4-0.4c0.1-0.1,0-0.4,0-0.5l-8.1-13.9l4.3-1.2c0.1,0,0.4-0.3,0.4-0.4
		c0.1-0.1,0-0.4,0-0.5l-7.3-12.6l2.6-0.7c0.1,0,0.4-0.3,0.4-0.4c0.1-0.1,0-0.4,0-0.5l-6.7-11.6c-0.3-0.4-0.9-0.4-1.2,0L9.7,68.2
		c-0.1,0.1-0.1,0.4,0,0.5c0.1,0.1,0.3,0.4,0.4,0.4l2.6,0.7L5.4,82.5c-0.1,0.1-0.1,0.4,0,0.5s0.3,0.4,0.4,0.4l4.3,1.2L2,98.5
		c-0.1,0.1-0.1,0.4,0,0.5c0.1,0.1,0.3,0.4,0.4,0.4l13.9,3.9v1.7c0,2.2-1.7,3.8-3.8,3.8H6.9c-0.4,0-0.7,0.3-0.7,0.7
		c0,0.4,0.3,0.7,0.7,0.7h5.7l0,0l0,0h9.1l0,0l0,0h26.1c1.2,0,2.2,0.8,2.4,1.9h-2.4c-2.7,0-5,2.3-5,5v1.3H0.7c-0.4,0-0.7,0.3-0.7,0.7
		s0.3,0.7,0.7,0.7h42.8c0.4,0,0.7-0.3,0.7-0.7c0,0,0,0,0-0.1V117c0-2,1.6-3.6,3.6-3.6h38.9c2,0,3.6,1.6,3.6,3.6v2c0,0.1,0,0.1,0,0.3
		c0.1,0.3,0.4,0.4,0.7,0.4h34c0.4,0,0.7-0.3,0.7-0.7s-0.3-0.7-0.7-0.7h-15.7v-4.4c7.4-0.4,13.2-6.5,13.2-13.9
		c0-7.7-6.2-13.9-13.9-13.9c-7.7,0-13.9,6.2-13.9,13.9c0,2,0.4,3.9,1.2,5.7L82.2,105.7L82.2,105.7z M70.5,101.4h-2
		c0.4-0.4,0.8-0.8,1.1-1.3C69.7,100.6,70,101,70.5,101.4z M55.4,101.4c-2,0-3.8-1.7-3.8-3.8V85.3c3-0.1,5.7-1.5,7.5-3.6
		c2.3,2.8,5.7,4.8,9.6,5v10.9c0,2-1.7,3.8-3.8,3.8h-9.6V101.4z M58.4,80.6c-1.7,2-4.2,3.2-6.7,3.4v-2.7l5.1-5.1
		C57,77.8,57.6,79.2,58.4,80.6z M69.4,38.3c2.4,6.3,11.4,29.9,11.4,35.5c0,6.1-4.7,11-10.8,11.4V81l7.5-7.5c0.3-0.3,0.3-0.7,0-0.9
		s-0.7-0.3-0.9,0l-6.6,6.6V53.8c0-0.4-0.3-0.7-0.7-0.7c-0.4,0-0.7,0.3-0.7,0.7v15.3l-5-5c-0.3-0.3-0.7-0.3-0.9,0
		c-0.3,0.3-0.3,0.7,0,0.9l5.9,5.9v9.4c0,0.1,0,0.3,0,0.5v4.3c-6.1-0.3-10.9-5.4-10.9-11.4C57.8,68.2,66.9,44.8,69.4,38.3z
		 M41.2,74.1c0-4.8,7.5-24.6,9.8-30.4c1.5,3.8,5.1,13.3,7.5,21c-1.2,4-2,7.4-2,9.1c0,0.1,0,0.4,0,0.5l-4.8,4.8V51.1
		c0-0.4-0.3-0.7-0.7-0.7s-0.7,0.3-0.7,0.7v18l-3.8-3.8c-0.3-0.3-0.7-0.3-0.9,0s-0.3,0.7,0,0.9l4.7,4.7v12.8
		C45.2,83.5,41.2,79.4,41.2,74.1z M51,100.1c0.3,0.5,0.7,0.9,1.1,1.3h-2.2C50.3,101,50.7,100.6,51,100.1z M11.8,84.5
		c0.1-0.1,0.1-0.4,0-0.5s-0.3-0.4-0.4-0.4l-4.3-1.2l7.3-12.6c0.1-0.1,0.1-0.4,0-0.5c-0.1-0.1-0.3-0.4-0.4-0.4l-2.6-0.7l5.7-9.8
		l5.7,9.8l-2.6,0.7c-0.1,0-0.4,0.3-0.4,0.4c-0.1,0.1,0,0.4,0,0.5L27,82.3l-4.3,1.2c-0.1,0-0.4,0.3-0.4,0.4c-0.1,0.1,0,0.4,0,0.5
		l8.1,13.9l-13.3,3.8L3.8,98.3L11.8,84.5z M16.1,108.8c0.4-0.4,0.8-0.8,1.1-1.3c0.3,0.5,0.7,0.9,1.1,1.3H16.1z M47.8,108.8H24.9
		v-2.6c0-2,1.6-3.6,3.6-3.6h17.9l0,0l0,0h8.9l0,0l0,0h9.4l0,0l0,0h8.9l0,0l0,0h3.5c1.7,0,3.2,1.2,3.5,3h-0.1c-2.7,0-5,2.3-5,5v1.5
		H51.3C51.3,110.3,49.6,108.8,47.8,108.8z M91.6,118.4V117c0-2.7-2.3-5-5-5h-9.6v-1.5c0-2,1.6-3.6,3.6-3.6h15.7
		c2.3,3.9,6.5,6.6,11.3,6.9v4.4H91.6V118.4z M108.6,87.4c6.9,0,12.5,5.7,12.5,12.5c0,6.7-5.2,12.2-11.8,12.5v-4.2l8.5-8.5
		c0.3-0.3,0.3-0.7,0-0.9c-0.3-0.3-0.7-0.3-0.9,0l-7.5,7.5V92.2c0-0.4-0.3-0.7-0.7-0.7c-0.4,0-0.7,0.3-0.7,0.7v7.3l-5.7-5.7
		c-0.3-0.3-0.7-0.3-0.9,0c-0.3,0.3-0.3,0.7,0,0.9l6.6,6.6v11.2c-6.6-0.4-11.8-5.8-11.8-12.5C95.9,93.1,101.6,87.4,108.6,87.4z"/>
	<g>
		<path class="st0" d="M186.6,43.3h-1.7V30c0-0.4-0.3-0.7-0.7-0.7H168c-0.4,0-0.7,0.3-0.7,0.7v13.3h-1.7c-0.4,0-0.7,0.3-0.7,0.7
			s0.3,0.7,0.7,0.7h2.4h16.1h2.4c0.4,0,0.7-0.3,0.7-0.7C187.3,43.7,187,43.3,186.6,43.3z M168.7,43.3V30.7h14.8v12.6H168.7z"/>
		<path class="st0" d="M186.6,68.9h-1.7V55.6c0-0.4-0.3-0.7-0.7-0.7H168c-0.4,0-0.7,0.3-0.7,0.7v13.3h-1.7c-0.4,0-0.7,0.3-0.7,0.7
			s0.3,0.7,0.7,0.7h2.4h16.1h2.4c0.4,0,0.7-0.3,0.7-0.7S187,68.9,186.6,68.9z M168.7,68.9V56.2h14.8v12.6H168.7z"/>
		<path class="st0" d="M201.9,44.7h1.9h12.9h1.9c0.4,0,0.7-0.3,0.7-0.7s-0.3-0.7-0.7-0.7h-1.2V30c0-0.4-0.3-0.7-0.7-0.7h-12.9
			c-0.4,0-0.7,0.3-0.7,0.7v13.3h-1.2c-0.4,0-0.7,0.3-0.7,0.7C201.3,44.4,201.7,44.7,201.9,44.7z M204.5,30.7h11.6v12.6h-11.6V30.7z"
			/>
		<path class="st0" d="M201.9,70.2h1.9h12.9h1.9c0.4,0,0.7-0.3,0.7-0.7s-0.3-0.7-0.7-0.7h-1.2V55.6c0-0.4-0.3-0.7-0.7-0.7h-12.9
			c-0.4,0-0.7,0.3-0.7,0.7v13.3h-1.2c-0.4,0-0.7,0.3-0.7,0.7S201.7,70.2,201.9,70.2z M204.5,56.1h11.6v12.6h-11.6V56.1z"/>
		<path class="st0" d="M216.7,80.2h-12.9c-0.4,0-0.7,0.3-0.7,0.7v14c0,0.4,0.3,0.7,0.7,0.7h12.9c0.4,0,0.7-0.3,0.7-0.7v-14
			C217.4,80.6,217.1,80.2,216.7,80.2z M216.1,94.3h-11.6V81.7h11.6V94.3z"/>
		<path class="st0" d="M150.3,43.3h-1.2V30c0-0.4-0.3-0.7-0.7-0.7h-12.9c-0.4,0-0.7,0.3-0.7,0.7v13.3h-1.2c-0.4,0-0.7,0.3-0.7,0.7
			s0.3,0.7,0.7,0.7h1.9h12.9h1.9c0.4,0,0.7-0.3,0.7-0.7C150.9,43.7,150.7,43.3,150.3,43.3z M136.3,43.3V30.7h11.6v12.6H136.3z"/>
		<path class="st0" d="M150.3,68.9h-1.2V55.6c0-0.4-0.3-0.7-0.7-0.7h-12.9c-0.4,0-0.7,0.3-0.7,0.7v13.3h-1.2c-0.4,0-0.7,0.3-0.7,0.7
			s0.3,0.7,0.7,0.7h1.9h12.9h1.9c0.4,0,0.7-0.3,0.7-0.7S150.7,68.9,150.3,68.9z M136.3,68.9V56.2h11.6v12.6H136.3z"/>
		<path class="st0" d="M148.4,80.2h-12.9c-0.4,0-0.7,0.3-0.7,0.7v14c0,0.4,0.3,0.7,0.7,0.7h12.9c0.4,0,0.7-0.3,0.7-0.7v-14
			C149.1,80.6,148.8,80.2,148.4,80.2z M147.7,94.3h-11.6V81.7h11.6V94.3z"/>
		<path class="st0" d="M186.6,94.3h-1.7V81c0-0.4-0.3-0.7-0.7-0.7H168c-0.4,0-0.7,0.3-0.7,0.7v13.3h-1.7c-0.4,0-0.7,0.3-0.7,0.7
			c0,0.4,0.3,0.7,0.7,0.7h2.4h16.1h2.4c0.4,0,0.7-0.3,0.7-0.7C187.3,94.6,187,94.3,186.6,94.3z M168.7,94.3V81.7h14.8v12.6H168.7z"
			/>
		<path class="st0" d="M176.1,17.2c1.6,0,3.1-1.3,3.1-3.1c0-1.6-1.3-3.1-3.1-3.1c-1.6,0-3.1,1.3-3.1,3.1
			C173.1,15.9,174.5,17.2,176.1,17.2z M176.1,12.5c0.9,0,1.7,0.8,1.7,1.7c0,0.9-0.8,1.7-1.7,1.7s-1.7-0.8-1.7-1.7
			C174.5,13.2,175.2,12.5,176.1,12.5z"/>
		<path class="st0" d="M119.1,119.7h6.6h28.5h44h28.5h6.6c0.4,0,0.7-0.3,0.7-0.7s-0.3-0.7-0.7-0.7h-5.9v-10.6c0-0.4-0.3-0.7-0.7-0.7
			h-1.3V22.3l2.7,0.8h0.1c0.1,0,0.3,0,0.4-0.1c0.1-0.1,0.3-0.3,0.3-0.5v-3.6c0-0.3-0.1-0.5-0.5-0.7L176.2,2c-0.1,0-0.3,0-0.4,0
			l-14.9,4.7V0.7c0-0.4-0.3-0.7-0.7-0.7h-17c-0.4,0-0.7,0.3-0.7,0.7v11.7l-18.7,5.8c-0.3,0.1-0.5,0.4-0.5,0.7v3.6
			c0,0.3,0.1,0.4,0.3,0.5c0.1,0.1,0.4,0.1,0.5,0.1l2.7-0.8v84.8h-1.3c-0.4,0-0.7,0.3-0.7,0.7v10.6h-5.9c-0.4,0-0.7,0.3-0.7,0.7
			C118.4,119.5,118.7,119.7,119.1,119.7z M154.8,108.6h0.9h40.8h0.9v10h-42.6V108.6z M156.5,13.2l19.6-6.1l19.6,6.1v93.9h-39.3
			L156.5,13.2L156.5,13.2z M226,118.4h-27.2v-10H226V118.4z M224,107.2h-25.8h-0.9V13.7l26.8,8.3V107.2z M143.9,1.5h15.6v5.8
			l-15.6,4.8V1.5z M124.7,19.5l51.4-16l51.4,16v2.3l-2.6-0.8c-0.1-0.1-0.3-0.1-0.4-0.1l0,0L176.4,5.8h-0.1c-0.1,0-0.1,0-0.1,0
			l-48.4,14.9l0,0c-0.1,0-0.3,0-0.4,0.1l-2.6,0.8V19.5z M128.3,21.9l26.8-8.3v93.5h-0.9h-25.8V21.9z M126.3,108.6h27.2v10h-27.2
			V108.6z"/>
	</g>
	<path class="st0" d="M282.2,118.4h-7c2.3-1.5,3.8-4,3.8-6.9c0-4.6-3.8-8.2-8.2-8.2c-2,0-3.9,0.8-5.4,2l-3-3l0.8-3.4h2.2
		c0.4,0,0.7-0.3,0.7-0.7s-0.3-0.7-0.7-0.7h-5c-0.4,0-0.7,0.3-0.7,0.7s0.3,0.7,0.7,0.7h1.5l-0.7,2.7l-14.4-4.4l0.5-3.1l2.2-0.9
		c0.4-0.1,0.8-0.1,2.8,0.5c0.4,0.1,0.7,0,0.8-0.4c0.1-0.4,0-0.7-0.4-0.8c-2-0.8-2.8-0.9-3.9-0.5l-2.4,1.1l0,0c0,0-0.1,0-0.1,0.1
		c0,0,0,0-0.1,0.1c0,0,0,0,0,0.1v0.1l0,0l-0.4,2.3h-8.3c-0.3,0-0.4,0.1-0.5,0.3c-0.1,0.1-0.1,0.4-0.1,0.5l1.3,5.2
		c0.1,0.3,0.4,0.5,0.7,0.5h5.8l-0.1,1.1c-0.3,0-0.5,0-0.9,0c-4.6,0-8.2,3.8-8.2,8.2c0,3,1.5,5.5,3.8,6.9h-6.9
		c-0.4,0-0.7,0.3-0.7,0.7s0.3,0.7,0.7,0.7h50.2c0.4,0,0.7-0.3,0.7-0.7C282.9,118.7,282.5,118.4,282.2,118.4z M238.1,97h7.3l-0.7,3.9
		h-5.5L238.1,97z M270.7,104.5c3.8,0,6.9,3.1,6.9,6.9c0,3.8-3.1,6.9-6.9,6.9c-2.3,0-4.4-1.2-5.7-3l6.2-1.9l0,0
		c0.9-0.3,1.6-1.1,1.6-2.2c0-1.2-0.9-2.2-2-2.2l0,0h-0.1l0,0l0,0l0,0c-0.1,0-0.3,0-0.4,0l-0.5,0.1l-3.2-3.2
		C267.4,105.2,268.9,104.5,270.7,104.5z M256.7,113.3l1.3,1.5l0,0c0,0,0.1,0,0.1,0.1h0.1l0,0h0.1h0.1l2-0.5c-0.1,1.1-1.1,1.7-2,1.7
		c-1.2,0-2.2-0.9-2.2-2.2C256.5,113.8,256.5,113.5,256.7,113.3z M262.3,111.5c0,0.4,0,0.8,0.1,1.2l-0.9,0.3
		c-0.1-0.4-0.5-0.8-0.8-1.1L262.3,111.5z M267.8,109.6l-4,0.5c0.3-1.2,0.8-2.3,1.5-3.2L267.8,109.6z M270.7,110.3
		c0.7,0,1.2,0.5,1.2,1.2s-0.5,1.2-1.2,1.2c-0.3,0-0.5-0.1-0.8-0.3l0.9-0.3c0.3,0,0.4-0.3,0.5-0.4c0.1-0.3,0-0.5-0.1-0.7l-0.7-0.7
		C270.4,110.3,270.5,110.3,270.7,110.3L270.7,110.3z M268.7,110.6c-0.1,0.3-0.1,0.4-0.1,0.7l-4.7,1.1c0-0.3-0.1-0.5-0.1-0.9v-0.1
		L268.7,110.6z M259.6,112.3c0.3,0.1,0.5,0.4,0.8,0.8l-1.1,0.3L259.6,112.3z M258.3,112.1l-0.3,0.8l-0.5-0.5
		C257.8,112.2,258,112.1,258.3,112.1z M261.7,114.2l1.1-0.3c0.1,0.4,0.3,0.7,0.4,0.9l-1.7,0.5C261.5,115.2,261.7,114.6,261.7,114.2z
		 M264.1,113.7l4.7-1.1c0.1,0.3,0.3,0.4,0.4,0.5l-4.7,1.5C264.3,114.3,264.2,113.9,264.1,113.7z M264.3,106.1
		c-1.1,1.2-1.7,2.7-1.9,4.3l-2.4,0.4l1.9-7.1L264.3,106.1z M246.5,98.3l14.3,4.4l-2.2,8.2h-0.1l0,0c-0.5,0-1.2,0.1-1.6,0.5
		l-10.6-11.8l0,0L246.5,98.3z M236.4,111.5c0-3.8,3.1-6.9,6.9-6.9c0.3,0,0.4,0,0.7,0l-0.9,5c-0.9,0.1-1.7,0.9-1.7,1.9
		c0,1.1,0.9,2,2,2s2-0.9,2-2c0-0.7-0.4-1.3-0.9-1.6l0.9-5c2.8,0.8,5,3.5,5,6.6c0,3.8-3.1,6.9-6.9,6.9
		C239.5,118.4,236.4,115.3,236.4,111.5z M242.7,111.4v0.1C242.7,111.5,242.7,111.5,242.7,111.4L242.7,111.4z M242.8,111.8
		C242.8,111.8,242.8,111.7,242.8,111.8C242.8,111.7,242.8,111.8,242.8,111.8z M247.8,118.4c2.3-1.5,3.8-4,3.8-6.9
		c0-3.8-2.6-7-6.1-7.9l0.4-2.2l10.1,11.2c-0.3,0.5-0.5,1.1-0.5,1.6c0,1.7,1.3,3.1,3.1,3.1c0.3,0,0.5,0,0.8-0.1c0,0,0,0,0.1,0l4-1.2
		c0.7,1.1,1.5,1.9,2.4,2.6h-18.2V118.4z"/>
</g>
</svg>
